<svg xmlns="http://www.w3.org/2000/svg" xmlns:xlink="http://www.w3.org/1999/xlink" width="1080" zoomAndPan="magnify" viewBox="0 0 810 809.999993" height="1080" preserveAspectRatio="xMidYMid meet" version="1.0"><defs><clipPath id="cabfccdace"><path d="M 238.929688 241.585938 L 570 241.585938 L 570 568.492188 L 238.929688 568.492188 Z M 238.929688 241.585938 " clip-rule="nonzero"/></clipPath></defs><g clip-path="url(#cabfccdace)"><path fill="#dccdc5" d="M 562.703125 386.851562 C 571.742188 395.890625 571.742188 410.542969 562.703125 419.578125 L 420.570312 561.714844 C 416.050781 566.234375 410.121094 568.492188 404.195312 568.492188 C 398.289062 568.492188 392.359375 566.234375 387.84375 561.714844 L 245.707031 419.578125 C 236.667969 410.542969 236.667969 395.890625 245.707031 386.851562 C 254.742188 377.816406 269.394531 377.816406 278.453125 386.851562 L 404.195312 512.613281 L 529.957031 386.851562 C 539.015625 377.816406 553.667969 377.816406 562.703125 386.851562 Z M 387.84375 423.226562 C 392.359375 427.746094 398.289062 430.003906 404.195312 430.003906 C 410.121094 430.003906 416.050781 427.746094 420.570312 423.226562 L 562.703125 281.113281 C 571.742188 272.054688 571.742188 257.402344 562.703125 248.363281 C 553.667969 239.328125 539.015625 239.328125 529.957031 248.363281 L 404.195312 374.125 L 278.453125 248.363281 C 269.394531 239.328125 254.742188 239.328125 245.707031 248.363281 C 236.667969 257.402344 236.667969 272.054688 245.707031 281.113281 Z M 387.84375 423.226562 " fill-opacity="1" fill-rule="nonzero"/></g></svg>